<svg width="32" height="32" viewBox="0 0 32 32" fill="none" xmlns="http://www.w3.org/2000/svg">
<g clip-path="url(#clip0_1_195)">
<path d="M27 0H5C2.23858 0 0 2.23858 0 5V27C0 29.7614 2.23858 32 5 32H27C29.7614 32 32 29.7614 32 27V5C32 2.23858 29.7614 0 27 0Z" fill="#FDFCFB"/>
<mask id="mask0_1_195" style="mask-type:luminance" maskUnits="userSpaceOnUse" x="0" y="0" width="32" height="32">
<path d="M32 0H0V32H32V0Z" fill="white"/>
</mask>
<g mask="url(#mask0_1_195)">
<path d="M15.6 28.2001C22.5588 28.2001 28.2001 22.5588 28.2001 15.6C28.2001 8.64122 22.5588 3 15.6 3C8.64122 3 3 8.64122 3 15.6C3 22.5588 8.64122 28.2001 15.6 28.2001Z" stroke="#0F172A" stroke-width="1.25"/>
<path d="M10.2947 10.2948C12.9473 8.96844 18.2526 8.96844 20.9052 10.2948" stroke="#06B6D4" stroke-width="1.25" stroke-linecap="round"/>
<path d="M15.6 21.5685C18.1638 21.5685 20.2421 19.4901 20.2421 16.9263C20.2421 14.3626 18.1638 12.2842 15.6 12.2842C13.0362 12.2842 10.9579 14.3626 10.9579 16.9263C10.9579 19.4901 13.0362 21.5685 15.6 21.5685Z" fill="#06B6D4"/>
<path d="M12.9474 19.579C14.2737 20.9053 16.9263 20.9053 18.2527 19.579" stroke="#0F172A" stroke-width="1.25" stroke-linecap="round"/>
<path d="M16.9259 14.274C17.2922 14.274 17.5898 14.5708 17.5898 14.937V15.6C17.5898 15.6687 17.5792 15.7351 17.5598 15.7976C17.5082 15.6815 17.393 15.6 17.2578 15.6C17.0747 15.6 16.9259 15.7488 16.9259 15.9319C16.9261 16.0664 17.0067 16.1819 17.1218 16.2338C17.0601 16.2529 16.994 16.263 16.9259 16.263C16.5599 16.2629 16.2629 15.9662 16.2629 15.6V14.937C16.2629 14.5709 16.5599 14.2742 16.9259 14.274Z" fill="#0F172A"/>
<path d="M14.2741 14.274C14.6401 14.2742 14.937 14.5709 14.937 14.937V15.6C14.937 15.6682 14.9263 15.734 14.9071 15.7959C14.8551 15.6806 14.7398 15.6 14.6051 15.6C14.4221 15.6001 14.2741 15.7488 14.2741 15.9319C14.2741 16.0664 14.354 16.1819 14.4691 16.2338C14.4074 16.2529 14.3419 16.263 14.2741 16.263C13.9078 16.263 13.6102 15.9663 13.6102 15.6V14.937C13.6102 14.5708 13.9078 14.274 14.2741 14.274Z" fill="#0F172A"/>
</g>
</g>
<defs>
<clipPath id="clip0_1_195">
<rect width="32" height="32" fill="white"/>
</clipPath>
</defs>
</svg>
