<svg width="196" height="40" viewBox="0 0 196 40" fill="none" xmlns="http://www.w3.org/2000/svg">
<g clip-path="url(#clip0_1_57)">
<path d="M20 39C30.4934 39 39 30.4934 39 20C39 9.50659 30.4934 1 20 1C9.50659 1 1 9.50659 1 20C1 30.4934 9.50659 39 20 39Z" stroke="#0F172A" stroke-width="2"/>
<path d="M12 12C16 10 24 10 28 12" stroke="#06B6D4" stroke-width="1.5" stroke-linecap="round"/>
<path d="M20 29C23.866 29 27 25.866 27 22C27 18.134 23.866 15 20 15C16.134 15 13 18.134 13 22C13 25.866 16.134 29 20 29Z" fill="#06B6D4"/>
<path d="M16 26C18 28 22 28 24 26" stroke="#0F172A" stroke-width="1.5" stroke-linecap="round"/>
<path d="M22 18C22.5523 18 23 18.4477 23 19V20C23 20.1027 22.9839 20.2016 22.9551 20.2949C22.8767 20.1213 22.7029 20 22.5 20C22.2239 20 22 20.2239 22 20.5C22 20.7029 22.1213 20.8767 22.2949 20.9551C22.2016 20.9839 22.1027 21 22 21C21.4477 21 21 20.5523 21 20V19C21 18.4477 21.4477 18 22 18Z" fill="#0F172A"/>
<path d="M18 18C18.5523 18 19 18.4477 19 19V20C19 20.1027 18.9839 20.2016 18.9551 20.2949C18.8767 20.1213 18.7029 20 18.5 20C18.2239 20 18 20.2239 18 20.5C18 20.7029 18.1213 20.8767 18.2949 20.9551C18.2016 20.9839 18.1027 21 18 21C17.4477 21 17 20.5523 17 20V19C17 18.4477 17.4477 18 18 18Z" fill="#0F172A"/>
</g>
<path d="M67.952 9.624V29H65.404V14.552L58.964 29H57.172L50.704 14.524V29H48.156V9.624H50.9L58.068 25.64L65.236 9.624H67.952ZM78.9652 29.252C77.5279 29.252 76.2212 28.9253 75.0452 28.272C73.8879 27.6187 72.9732 26.6947 72.3012 25.5C71.6479 24.2867 71.3212 22.8867 71.3212 21.3C71.3212 19.732 71.6572 18.3507 72.3292 17.156C73.0199 15.9427 73.9532 15.0187 75.1292 14.384C76.3052 13.7307 77.6212 13.404 79.0772 13.404C80.5332 13.404 81.8492 13.7307 83.0252 14.384C84.2012 15.0187 85.1252 15.9333 85.7972 17.128C86.4879 18.3227 86.8332 19.7133 86.8332 21.3C86.8332 22.8867 86.4785 24.2867 85.7692 25.5C85.0785 26.6947 84.1359 27.6187 82.9412 28.272C81.7465 28.9253 80.4212 29.252 78.9652 29.252ZM78.9652 27.012C79.8799 27.012 80.7385 26.7973 81.5412 26.368C82.3439 25.9387 82.9879 25.2947 83.4732 24.436C83.9772 23.5773 84.2292 22.532 84.2292 21.3C84.2292 20.068 83.9865 19.0227 83.5012 18.164C83.0159 17.3053 82.3812 16.6707 81.5972 16.26C80.8132 15.8307 79.9639 15.616 79.0492 15.616C78.1159 15.616 77.2572 15.8307 76.4732 16.26C75.7079 16.6707 75.0919 17.3053 74.6252 18.164C74.1585 19.0227 73.9252 20.068 73.9252 21.3C73.9252 22.5507 74.1492 23.6053 74.5972 24.464C75.0639 25.3227 75.6799 25.9667 76.4452 26.396C77.2105 26.8067 78.0505 27.012 78.9652 27.012ZM96.8753 29.252C95.438 29.252 94.1313 28.9253 92.9553 28.272C91.798 27.6187 90.8833 26.6947 90.2113 25.5C89.558 24.2867 89.2313 22.8867 89.2313 21.3C89.2313 19.732 89.5673 18.3507 90.2393 17.156C90.93 15.9427 91.8633 15.0187 93.0393 14.384C94.2153 13.7307 95.5313 13.404 96.9873 13.404C98.4433 13.404 99.7593 13.7307 100.935 14.384C102.111 15.0187 103.035 15.9333 103.707 17.128C104.398 18.3227 104.743 19.7133 104.743 21.3C104.743 22.8867 104.389 24.2867 103.679 25.5C102.989 26.6947 102.046 27.6187 100.851 28.272C99.6567 28.9253 98.3313 29.252 96.8753 29.252ZM96.8753 27.012C97.79 27.012 98.6487 26.7973 99.4513 26.368C100.254 25.9387 100.898 25.2947 101.383 24.436C101.887 23.5773 102.139 22.532 102.139 21.3C102.139 20.068 101.897 19.0227 101.411 18.164C100.926 17.3053 100.291 16.6707 99.5073 16.26C98.7233 15.8307 97.874 15.616 96.9593 15.616C96.026 15.616 95.1673 15.8307 94.3833 16.26C93.618 16.6707 93.002 17.3053 92.5353 18.164C92.0687 19.0227 91.8353 20.068 91.8353 21.3C91.8353 22.5507 92.0593 23.6053 92.5073 24.464C92.974 25.3227 93.59 25.9667 94.3553 26.396C95.1207 26.8067 95.9607 27.012 96.8753 27.012ZM107.142 21.272C107.142 19.704 107.459 18.332 108.094 17.156C108.728 15.9613 109.596 15.0373 110.698 14.384C111.818 13.7307 113.068 13.404 114.45 13.404C115.644 13.404 116.755 13.684 117.782 14.244C118.808 14.7853 119.592 15.504 120.134 16.4V8.28H122.71V29H120.134V26.116C119.63 27.0307 118.883 27.7867 117.894 28.384C116.904 28.9627 115.747 29.252 114.422 29.252C113.059 29.252 111.818 28.916 110.698 28.244C109.596 27.572 108.728 26.6293 108.094 25.416C107.459 24.2027 107.142 22.8213 107.142 21.272ZM120.134 21.3C120.134 20.1427 119.9 19.1347 119.434 18.276C118.967 17.4173 118.332 16.764 117.53 16.316C116.746 15.8493 115.878 15.616 114.926 15.616C113.974 15.616 113.106 15.84 112.322 16.288C111.538 16.736 110.912 17.3893 110.446 18.248C109.979 19.1067 109.746 20.1147 109.746 21.272C109.746 22.448 109.979 23.4747 110.446 24.352C110.912 25.2107 111.538 25.8733 112.322 26.34C113.106 26.788 113.974 27.012 114.926 27.012C115.878 27.012 116.746 26.788 117.53 26.34C118.332 25.8733 118.967 25.2107 119.434 24.352C119.9 23.4747 120.134 22.4573 120.134 21.3Z" fill="black"/>
<path d="M126.524 25.304H132.796V29H121.736V9.344H126.524V25.304ZM149.808 20.936C149.808 21.384 149.78 21.8507 149.724 22.336H138.888C138.962 23.3067 139.27 24.0533 139.812 24.576C140.372 25.08 141.053 25.332 141.856 25.332C143.05 25.332 143.881 24.828 144.348 23.82H149.444C149.182 24.8467 148.706 25.7707 148.016 26.592C147.344 27.4133 146.494 28.0573 145.468 28.524C144.441 28.9907 143.293 29.224 142.024 29.224C140.493 29.224 139.13 28.8973 137.936 28.244C136.741 27.5907 135.808 26.6573 135.136 25.444C134.464 24.2307 134.128 22.812 134.128 21.188C134.128 19.564 134.454 18.1453 135.108 16.932C135.78 15.7187 136.713 14.7853 137.908 14.132C139.102 13.4787 140.474 13.152 142.024 13.152C143.536 13.152 144.88 13.4693 146.056 14.104C147.232 14.7387 148.146 15.644 148.8 16.82C149.472 17.996 149.808 19.368 149.808 20.936ZM144.908 19.676C144.908 18.8547 144.628 18.2013 144.068 17.716C143.508 17.2307 142.808 16.988 141.968 16.988C141.165 16.988 140.484 17.2213 139.924 17.688C139.382 18.1547 139.046 18.8173 138.916 19.676H144.908ZM161.854 13.208C163.683 13.208 165.139 13.8053 166.222 15C167.323 16.176 167.874 17.8 167.874 19.872V29H163.114V20.516C163.114 19.4707 162.843 18.6587 162.302 18.08C161.76 17.5013 161.032 17.212 160.118 17.212C159.203 17.212 158.475 17.5013 157.934 18.08C157.392 18.6587 157.122 19.4707 157.122 20.516V29H152.334V13.376H157.122V15.448C157.607 14.7573 158.26 14.216 159.082 13.824C159.903 13.4133 160.827 13.208 161.854 13.208ZM177.557 29.224C176.194 29.224 174.981 28.9907 173.917 28.524C172.853 28.0573 172.013 27.4227 171.397 26.62C170.781 25.7987 170.436 24.884 170.361 23.876H175.093C175.149 24.4173 175.401 24.856 175.849 25.192C176.297 25.528 176.848 25.696 177.501 25.696C178.098 25.696 178.556 25.584 178.873 25.36C179.209 25.1173 179.377 24.8093 179.377 24.436C179.377 23.988 179.144 23.6613 178.677 23.456C178.21 23.232 177.454 22.9893 176.409 22.728C175.289 22.4667 174.356 22.196 173.609 21.916C172.862 21.6173 172.218 21.16 171.677 20.544C171.136 19.9093 170.865 19.06 170.865 17.996C170.865 17.1 171.108 16.288 171.593 15.56C172.097 14.8133 172.825 14.2253 173.777 13.796C174.748 13.3667 175.896 13.152 177.221 13.152C179.181 13.152 180.721 13.6373 181.841 14.608C182.98 15.5787 183.633 16.8667 183.801 18.472H179.377C179.302 17.9307 179.06 17.5013 178.649 17.184C178.257 16.8667 177.734 16.708 177.081 16.708C176.521 16.708 176.092 16.82 175.793 17.044C175.494 17.2493 175.345 17.5387 175.345 17.912C175.345 18.36 175.578 18.696 176.045 18.92C176.53 19.144 177.277 19.368 178.285 19.592C179.442 19.8907 180.385 20.1893 181.113 20.488C181.841 20.768 182.476 21.2347 183.017 21.888C183.577 22.5227 183.866 23.3813 183.885 24.464C183.885 25.3787 183.624 26.2 183.101 26.928C182.597 27.6373 181.86 28.1973 180.889 28.608C179.937 29.0187 178.826 29.224 177.557 29.224Z" fill="#06B6D4"/>
<defs>
<clipPath id="clip0_1_57">
<rect width="40" height="40" fill="white"/>
</clipPath>
</defs>
</svg>
