<svg width="139" height="40" viewBox="0 0 139 40" fill="none" xmlns="http://www.w3.org/2000/svg">
<g clip-path="url(#clip0_1_73)">
<path d="M21.952 9.624V29H19.404V14.552L12.964 29H11.172L4.704 14.524V29H2.156V9.624H4.9L12.068 25.64L19.236 9.624H21.952ZM32.9652 29.252C31.5279 29.252 30.2212 28.9253 29.0452 28.272C27.8879 27.6187 26.9732 26.6947 26.3012 25.5C25.6479 24.2867 25.3212 22.8867 25.3212 21.3C25.3212 19.732 25.6572 18.3507 26.3292 17.156C27.0199 15.9427 27.9532 15.0187 29.1292 14.384C30.3052 13.7307 31.6212 13.404 33.0772 13.404C34.5332 13.404 35.8492 13.7307 37.0252 14.384C38.2012 15.0187 39.1252 15.9333 39.7972 17.128C40.4879 18.3227 40.8332 19.7133 40.8332 21.3C40.8332 22.8867 40.4785 24.2867 39.7692 25.5C39.0785 26.6947 38.1359 27.6187 36.9412 28.272C35.7465 28.9253 34.4212 29.252 32.9652 29.252ZM32.9652 27.012C33.8799 27.012 34.7385 26.7973 35.5412 26.368C36.3439 25.9387 36.9879 25.2947 37.4732 24.436C37.9772 23.5773 38.2292 22.532 38.2292 21.3C38.2292 20.068 37.9865 19.0227 37.5012 18.164C37.0159 17.3053 36.3812 16.6707 35.5972 16.26C34.8132 15.8307 33.9639 15.616 33.0492 15.616C32.1159 15.616 31.2572 15.8307 30.4732 16.26C29.7079 16.6707 29.0919 17.3053 28.6252 18.164C28.1585 19.0227 27.9252 20.068 27.9252 21.3C27.9252 22.5507 28.1492 23.6053 28.5972 24.464C29.0639 25.3227 29.6799 25.9667 30.4452 26.396C31.2105 26.8067 32.0505 27.012 32.9652 27.012ZM50.8753 29.252C49.438 29.252 48.1313 28.9253 46.9553 28.272C45.798 27.6187 44.8833 26.6947 44.2113 25.5C43.558 24.2867 43.2313 22.8867 43.2313 21.3C43.2313 19.732 43.5673 18.3507 44.2393 17.156C44.93 15.9427 45.8633 15.0187 47.0393 14.384C48.2153 13.7307 49.5313 13.404 50.9873 13.404C52.4433 13.404 53.7593 13.7307 54.9353 14.384C56.1113 15.0187 57.0353 15.9333 57.7073 17.128C58.398 18.3227 58.7433 19.7133 58.7433 21.3C58.7433 22.8867 58.3887 24.2867 57.6793 25.5C56.9887 26.6947 56.046 27.6187 54.8513 28.272C53.6567 28.9253 52.3313 29.252 50.8753 29.252ZM50.8753 27.012C51.79 27.012 52.6487 26.7973 53.4513 26.368C54.254 25.9387 54.898 25.2947 55.3833 24.436C55.8873 23.5773 56.1393 22.532 56.1393 21.3C56.1393 20.068 55.8967 19.0227 55.4113 18.164C54.926 17.3053 54.2913 16.6707 53.5073 16.26C52.7233 15.8307 51.874 15.616 50.9593 15.616C50.026 15.616 49.1673 15.8307 48.3833 16.26C47.618 16.6707 47.002 17.3053 46.5353 18.164C46.0687 19.0227 45.8353 20.068 45.8353 21.3C45.8353 22.5507 46.0593 23.6053 46.5073 24.464C46.974 25.3227 47.59 25.9667 48.3553 26.396C49.1207 26.8067 49.9607 27.012 50.8753 27.012ZM61.1415 21.272C61.1415 19.704 61.4588 18.332 62.0935 17.156C62.7282 15.9613 63.5962 15.0373 64.6975 14.384C65.8175 13.7307 67.0682 13.404 68.4495 13.404C69.6442 13.404 70.7548 13.684 71.7815 14.244C72.8082 14.7853 73.5922 15.504 74.1335 16.4V8.28H76.7095V29H74.1335V26.116C73.6295 27.0307 72.8828 27.7867 71.8935 28.384C70.9042 28.9627 69.7468 29.252 68.4215 29.252C67.0588 29.252 65.8175 28.916 64.6975 28.244C63.5962 27.572 62.7282 26.6293 62.0935 25.416C61.4588 24.2027 61.1415 22.8213 61.1415 21.272ZM74.1335 21.3C74.1335 20.1427 73.9002 19.1347 73.4335 18.276C72.9668 17.4173 72.3322 16.764 71.5295 16.316C70.7455 15.8493 69.8775 15.616 68.9255 15.616C67.9735 15.616 67.1055 15.84 66.3215 16.288C65.5375 16.736 64.9122 17.3893 64.4455 18.248C63.9788 19.1067 63.7455 20.1147 63.7455 21.272C63.7455 22.448 63.9788 23.4747 64.4455 24.352C64.9122 25.2107 65.5375 25.8733 66.3215 26.34C67.1055 26.788 67.9735 27.012 68.9255 27.012C69.8775 27.012 70.7455 26.788 71.5295 26.34C72.3322 25.8733 72.9668 25.2107 73.4335 24.352C73.9002 23.4747 74.1335 22.4573 74.1335 21.3Z" fill="black"/>
<path d="M80.524 25.304H86.796V29H75.736V9.344H80.524V25.304ZM103.808 20.936C103.808 21.384 103.78 21.8507 103.724 22.336H92.8878C92.9624 23.3067 93.2704 24.0533 93.8118 24.576C94.3718 25.08 95.0531 25.332 95.8558 25.332C97.0504 25.332 97.8811 24.828 98.3478 23.82H103.444C103.182 24.8467 102.706 25.7707 102.016 26.592C101.344 27.4133 100.494 28.0573 99.4678 28.524C98.4411 28.9907 97.2931 29.224 96.0238 29.224C94.4931 29.224 93.1304 28.8973 91.9358 28.244C90.7411 27.5907 89.8078 26.6573 89.1358 25.444C88.4638 24.2307 88.1278 22.812 88.1278 21.188C88.1278 19.564 88.4544 18.1453 89.1078 16.932C89.7798 15.7187 90.7131 14.7853 91.9078 14.132C93.1024 13.4787 94.4744 13.152 96.0238 13.152C97.5358 13.152 98.8798 13.4693 100.056 14.104C101.232 14.7387 102.146 15.644 102.8 16.82C103.472 17.996 103.808 19.368 103.808 20.936ZM98.9078 19.676C98.9078 18.8547 98.6278 18.2013 98.0678 17.716C97.5078 17.2307 96.8078 16.988 95.9678 16.988C95.1651 16.988 94.4838 17.2213 93.9238 17.688C93.3824 18.1547 93.0464 18.8173 92.9158 19.676H98.9078ZM115.854 13.208C117.683 13.208 119.139 13.8053 120.222 15C121.323 16.176 121.874 17.8 121.874 19.872V29H117.114V20.516C117.114 19.4707 116.843 18.6587 116.302 18.08C115.76 17.5013 115.032 17.212 114.118 17.212C113.203 17.212 112.475 17.5013 111.934 18.08C111.392 18.6587 111.122 19.4707 111.122 20.516V29H106.334V13.376H111.122V15.448C111.607 14.7573 112.26 14.216 113.082 13.824C113.903 13.4133 114.827 13.208 115.854 13.208ZM131.557 29.224C130.194 29.224 128.981 28.9907 127.917 28.524C126.853 28.0573 126.013 27.4227 125.397 26.62C124.781 25.7987 124.436 24.884 124.361 23.876H129.093C129.149 24.4173 129.401 24.856 129.849 25.192C130.297 25.528 130.848 25.696 131.501 25.696C132.098 25.696 132.556 25.584 132.873 25.36C133.209 25.1173 133.377 24.8093 133.377 24.436C133.377 23.988 133.144 23.6613 132.677 23.456C132.21 23.232 131.454 22.9893 130.409 22.728C129.289 22.4667 128.356 22.196 127.609 21.916C126.862 21.6173 126.218 21.16 125.677 20.544C125.136 19.9093 124.865 19.06 124.865 17.996C124.865 17.1 125.108 16.288 125.593 15.56C126.097 14.8133 126.825 14.2253 127.777 13.796C128.748 13.3667 129.896 13.152 131.221 13.152C133.181 13.152 134.721 13.6373 135.841 14.608C136.98 15.5787 137.633 16.8667 137.801 18.472H133.377C133.302 17.9307 133.06 17.5013 132.649 17.184C132.257 16.8667 131.734 16.708 131.081 16.708C130.521 16.708 130.092 16.82 129.793 17.044C129.494 17.2493 129.345 17.5387 129.345 17.912C129.345 18.36 129.578 18.696 130.045 18.92C130.53 19.144 131.277 19.368 132.285 19.592C133.442 19.8907 134.385 20.1893 135.113 20.488C135.841 20.768 136.476 21.2347 137.017 21.888C137.577 22.5227 137.866 23.3813 137.885 24.464C137.885 25.3787 137.624 26.2 137.101 26.928C136.597 27.6373 135.86 28.1973 134.889 28.608C133.937 29.0187 132.826 29.224 131.557 29.224Z" fill="#06B6D4"/>
</g>
<defs>
<clipPath id="clip0_1_73">
<rect width="139" height="40" fill="white"/>
</clipPath>
</defs>
</svg>
