<svg width="40" height="40" viewBox="0 0 40 40" fill="none" xmlns="http://www.w3.org/2000/svg">
<g clip-path="url(#clip0_1_22)">
<path d="M20 39C30.4934 39 39 30.4934 39 20C39 9.50659 30.4934 1 20 1C9.50659 1 1 9.50659 1 20C1 30.4934 9.50659 39 20 39Z" stroke="#0F172A" stroke-width="2"/>
<path d="M12 12C16 10 24 10 28 12" stroke="#06B6D4" stroke-width="1.5" stroke-linecap="round"/>
<path d="M20 29C23.866 29 27 25.866 27 22C27 18.134 23.866 15 20 15C16.134 15 13 18.134 13 22C13 25.866 16.134 29 20 29Z" fill="#06B6D4"/>
<path d="M16 26C18 28 22 28 24 26" stroke="#0F172A" stroke-width="1.5" stroke-linecap="round"/>
<path d="M22 18C22.5523 18 23 18.4477 23 19V20C23 20.1027 22.9839 20.2016 22.9551 20.2949C22.8767 20.1213 22.7029 20 22.5 20C22.2239 20 22 20.2239 22 20.5C22 20.7029 22.1213 20.8767 22.2949 20.9551C22.2016 20.9839 22.1027 21 22 21C21.4477 21 21 20.5523 21 20V19C21 18.4477 21.4477 18 22 18Z" fill="#0F172A"/>
<path d="M18 18C18.5523 18 19 18.4477 19 19V20C19 20.1027 18.9839 20.2016 18.9551 20.2949C18.8767 20.1213 18.7029 20 18.5 20C18.2239 20 18 20.2239 18 20.5C18 20.7029 18.1213 20.8767 18.2949 20.9551C18.2016 20.9839 18.1027 21 18 21C17.4477 21 17 20.5523 17 20V19C17 18.4477 17.4477 18 18 18Z" fill="#0F172A"/>
</g>
<defs>
<clipPath id="clip0_1_22">
<rect width="40" height="40" fill="white"/>
</clipPath>
</defs>
</svg>
